<?xml version="1.0" standalone="no"?>
<!DOCTYPE svg PUBLIC "-//W3C//DTD SVG 20010904//EN"
 "http://www.w3.org/TR/2001/REC-SVG-20010904/DTD/svg10.dtd">
<svg version="1.0" xmlns="http://www.w3.org/2000/svg"
 width="512.000000pt" height="512.000000pt" viewBox="0 0 512.000000 512.000000"
 preserveAspectRatio="xMidYMid meet">
<metadata>
Created by potrace 1.14, written by Peter Selinger 2001-2017
</metadata>
<g transform="translate(0.000000,512.000000) scale(0.100000,-0.100000)"
fill="#000000" stroke="none">
<path d="M1895 5096 c-49 -29 -74 -78 -70 -132 2 -21 29 -96 59 -166 31 -69
56 -128 56 -131 0 -2 -21 -10 -47 -18 -90 -24 -197 -84 -266 -148 -88 -82
-168 -235 -191 -366 -5 -26 -9 -200 -7 -307 l1 -38 1130 0 1130 0 1 53 c2 259
-8 343 -60 460 -38 88 -121 191 -201 249 -51 37 -151 85 -204 99 -25 6 -46 15
-46 18 0 4 25 63 56 132 31 68 57 142 59 164 8 111 -116 189 -213 135 -47 -27
-52 -34 -142 -240 -40 -91 -78 -169 -85 -175 -9 -8 -530 -13 -588 -6 -4 1 -11
11 -16 24 -5 12 -22 51 -39 87 -16 36 -46 101 -65 145 -20 44 -41 91 -48 105
-20 41 -62 68 -115 75 -41 5 -56 2 -89 -19z"/>
<path d="M328 4069 c-20 -10 -46 -35 -59 -55 -20 -34 -22 -49 -22 -178 -1
-190 6 -248 43 -372 17 -56 74 -185 93 -209 4 -5 23 -32 42 -60 125 -179 352
-326 571 -370 18 -3 34 -13 36 -23 2 -9 3 -78 3 -152 l-1 -135 -469 -5 -470
-5 -33 -23 c-99 -71 -69 -229 48 -259 19 -5 234 -9 477 -8 244 0 443 -2 444
-5 5 -27 2 -276 -3 -291 -4 -11 -17 -19 -30 -19 -13 0 -67 -15 -121 -34 -274
-95 -488 -311 -581 -588 -40 -119 -52 -210 -50 -399 1 -139 11 -171 67 -213
39 -29 125 -29 164 0 52 38 61 73 67 259 3 98 11 191 19 220 58 210 221 382
422 445 l50 16 1 -97 c8 -597 362 -1134 907 -1376 210 -93 403 -131 645 -127
86 1 164 4 172 7 8 2 38 7 65 11 100 15 279 72 385 123 537 257 869 782 874
1384 l1 76 40 -13 c211 -65 369 -229 432 -449 8 -30 16 -119 19 -220 6 -186
15 -221 67 -259 39 -29 125 -29 164 0 60 45 67 72 66 250 -1 142 -6 192 -27
293 -18 81 -117 301 -137 301 -4 0 -10 9 -14 20 -9 27 -150 170 -210 212 -27
19 -76 49 -107 67 -62 34 -223 91 -257 91 -11 0 -24 8 -29 18 -6 13 -8 201 -3
282 1 13 56 15 444 15 243 -1 458 3 477 8 136 35 145 227 14 277 -15 6 -217
10 -480 10 -250 0 -454 3 -455 8 0 4 -2 73 -2 154 l-2 147 40 7 c105 18 254
83 360 159 49 35 116 98 180 168 35 38 77 111 146 249 13 25 49 172 55 225 4
27 6 116 7 199 0 140 -1 154 -22 188 -52 84 -160 95 -231 23 -37 -37 -39 -53
-44 -247 -4 -174 -17 -234 -73 -341 -66 -127 -172 -228 -299 -286 -92 -42
-114 -48 -114 -31 -6 192 -20 240 -87 299 -74 65 -49 62 -700 63 l-593 1 0
-30 c0 -16 -1 -416 -3 -887 -2 -853 -2 -857 -23 -885 -53 -71 -148 -88 -211
-36 -20 16 -42 46 -49 67 -11 30 -13 213 -13 884 -1 466 -1 856 -1 867 0 20
-5 20 -592 20 l-593 -1 -48 -24 c-55 -28 -103 -77 -124 -129 -8 -19 -16 -73
-18 -120 -2 -47 -4 -89 -4 -93 -1 -11 -72 12 -136 44 -154 78 -273 220 -327
392 -14 46 -20 103 -25 236 -3 125 -9 184 -20 207 -31 66 -127 97 -195 62z"/>
</g>
</svg>
